<svg xmlns="http://www.w3.org/2000/svg" width="109.8" height="15.7" viewBox="0 0 109.8 15.7">
  <g id="logo-1" transform="translate(0 -35.1)">
    <g id="Nextmove_Logo_Green_00000011714154382047179790000009177941437492448141_" transform="translate(-56 -76)">
      <g id="Group_37" data-name="Group 37">
        <path id="Path_35" data-name="Path 35" d="M79.4,112.4h0l-.1,12.9H77.1V111.7h4.2l5,12.9h.1V111.7h2.2v13.6H84.4Z" fill="#064839"/>
        <path id="Path_36" data-name="Path 36" d="M90.5,120.4c0-3.1,2-5.1,4.8-5.1s4.6,2,4.6,5v.7H92.6c.1,1.8,1,2.9,2.7,2.9a2.449,2.449,0,0,0,2.4-1.6h2.1a4.322,4.322,0,0,1-4.5,3.2C92.5,125.5,90.5,123.6,90.5,120.4Zm7.4-.8c-.1-1.7-1-2.7-2.5-2.7a2.628,2.628,0,0,0-2.7,2.7Z" fill="#064839"/>
        <path id="Path_37" data-name="Path 37" d="M104,120.3l-3.5-4.8H103l2.3,3.2,2.4-3.2h2.4l-3.5,4.7,3.7,5h-2.6l-2.4-3.4-2.6,3.4h-2.4Z" fill="#064839"/>
        <path id="Path_38" data-name="Path 38" d="M112.1,122.9v-5.8h-1.5v-1.6h1.3a.215.215,0,0,0,.2-.2v-2.2l2.2-.3v2.6h2.4V117h-2.4v5.6c0,.6.3.8,1,.8h1.5v1.7h-2.1C113,125.3,112.1,124.5,112.1,122.9Z" fill="#064839"/>
        <path id="Path_39" data-name="Path 39" d="M118.4,115.5h2.2v2.3a2.924,2.924,0,0,1,3.2-2.5,2.773,2.773,0,0,1,3,2.4,3.123,3.123,0,0,1,3.3-2.4c2.1,0,3.2,1.3,3.2,3.4v6.5h-2.2v-5.8c0-1.4-.5-2.4-1.8-2.4-1.4,0-2.2,1-2.2,2.7v5.5h-2.2v-5.8c0-1.2-.3-2.4-1.9-2.4-1.4,0-2.3,1-2.3,3.1v5.1h-2.2v-9.7Z" fill="#064839"/>
        <path id="Path_40" data-name="Path 40" d="M135,120.4a4.952,4.952,0,1,1,5,5.1A4.751,4.751,0,0,1,135,120.4Zm4.9,3.4c1.8,0,2.7-1.4,2.7-3.4,0-2.1-.9-3.5-2.7-3.5s-2.7,1.4-2.7,3.5S138.1,123.8,139.9,123.8Z" fill="#064839"/>
        <path id="Path_41" data-name="Path 41" d="M145.5,115.5h2.4l2.7,9h.1l2.7-9h2.4l-3.2,9.7h-3.8Z" fill="#064839"/>
        <path id="Path_42" data-name="Path 42" d="M156.4,120.4c0-3.1,2-5.1,4.8-5.1s4.6,2,4.6,5v.7h-7.3c.1,1.8,1,2.9,2.7,2.9a2.449,2.449,0,0,0,2.4-1.6h2.1a4.322,4.322,0,0,1-4.5,3.2C158.3,125.5,156.4,123.6,156.4,120.4Zm7.3-.8c-.1-1.7-1-2.7-2.5-2.7a2.628,2.628,0,0,0-2.7,2.7Z" fill="#064839"/>
      </g>
      <path id="Path_33_00000075864319511488789290000003024352574921651585_" d="M63.8,111.2v6.4a1.324,1.324,0,0,1-1.3,1.3H56.1v-2.6h3.2L56,113l1.9-1.9,3.3,3.3v-3.2h2.6Z" fill="#064839"/>
      <path id="Path_34_00000044162362897832684840000008598171599781825924_" d="M71.6,119H65.2a1.324,1.324,0,0,0-1.3,1.3v6.4h2.6v-3.2l3.3,3.3,1.9-1.9-3.3-3.3h3.2Z" fill="#064839"/>
    </g>
  </g>
</svg>
